<?xml version="1.0" encoding="iso-8859-1"?>
<!-- Uploaded to: SVG Repo, www.svgrepo.com, Generator: SVG Repo Mixer Tools -->
<svg fill="#000000" height="800px" width="800px" version="1.1" id="Capa_1" xmlns="http://www.w3.org/2000/svg" xmlns:xlink="http://www.w3.org/1999/xlink" 
	 viewBox="0 0 392.262 392.262" xml:space="preserve">
<path id="XMLID_786_" d="M392.262,109.94c0-44.834-36.476-81.309-81.31-81.309c-21.719,0-42.342,8.785-57.41,23.781
	c-15.069-14.996-35.693-23.781-57.411-23.781c-21.719,0-42.342,8.785-57.411,23.78c-15.068-14.996-35.692-23.78-57.411-23.78
	C36.476,28.631,0,65.106,0,109.94c0,41.217,30.823,75.368,70.631,80.611v83.08h-17v90h285v-90h-17v-83.08
	C361.436,185.305,392.262,151.154,392.262,109.94z M308.631,333.631h-225v-30h225V333.631z M30,109.94
	c0-28.292,23.018-51.309,51.31-51.309c18.242,0,35.266,9.833,44.429,25.66l12.981,22.424l12.981-22.424
	c9.163-15.828,26.188-25.66,44.429-25.66c18.241,0,35.266,9.833,44.43,25.661l12.982,22.423l12.98-22.423
	c9.163-15.828,26.188-25.66,44.429-25.66c28.292,0,51.31,23.017,51.31,51.309s-23.018,51.31-51.31,51.31
	c-0.977,0-2.043-0.04-3.355-0.124l-15.966-1.03v108.399h-191V160.096l-15.965,1.03c-1.313,0.084-2.38,0.124-3.356,0.124
	C53.018,161.25,30,138.232,30,109.94z"/>
</svg>